<?xml version="1.0" standalone="no"?>
<!DOCTYPE svg PUBLIC "-//W3C//DTD SVG 20010904//EN"
 "http://www.w3.org/TR/2001/REC-SVG-20010904/DTD/svg10.dtd">
<svg version="1.0" xmlns="http://www.w3.org/2000/svg"
 width="640.000000pt" height="1280.000000pt" viewBox="0 0 640.000000 1280.000000"
 preserveAspectRatio="xMidYMid meet">
<metadata>
Created by potrace 1.15, written by Peter Selinger 2001-2017
</metadata>
<g transform="translate(0.000000,1280.000000) scale(0.100000,-0.100000)"
fill="#15cbb9" stroke="none">
<path d="M3390 12786 c-35 -14 -35 -14 -9 -20 14 -4 29 -6 35 -5 5 1 32 0 59
-1 l50 -2 -73 -19 c-114 -29 -187 -72 -278 -166 -89 -90 -139 -177 -174 -300
-24 -81 -24 -135 -5 -398 8 -110 14 -250 14 -311 -1 -65 3 -120 10 -132 19
-36 12 -61 -30 -102 -43 -42 -44 -60 -2 -60 l25 0 -23 -20 c-21 -17 -22 -21
-9 -30 8 -5 11 -10 5 -11 -5 -1 -14 -3 -20 -4 -62 -14 -78 -21 -91 -41 -22
-33 -40 -36 -135 -23 -84 11 -88 11 -195 -20 -60 -18 -136 -46 -169 -62 -155
-76 -380 -269 -528 -454 -44 -55 -187 -206 -318 -335 -224 -223 -359 -377
-437 -500 -19 -30 -50 -72 -69 -93 -18 -21 -44 -62 -58 -93 -81 -182 -209
-681 -245 -954 -36 -271 -68 -457 -91 -530 -22 -68 -34 -187 -45 -441 l-6
-147 34 -108 c46 -141 74 -275 78 -366 0 -5 11 -8 24 -8 22 0 26 -7 36 -56 13
-59 30 -75 62 -55 11 7 21 11 22 9 1 -2 7 -16 14 -32 12 -26 16 -28 50 -22 65
12 71 16 79 54 9 47 9 100 -1 293 -9 156 -8 166 25 292 9 35 13 38 42 35 31
-3 33 -6 60 -90 41 -128 99 -183 151 -145 18 13 17 17 -9 102 -14 48 -33 98
-40 109 -7 12 -21 48 -30 81 -20 69 -43 103 -136 200 -37 39 -72 83 -78 98
-37 98 12 332 165 777 34 102 77 237 94 300 38 141 82 282 104 335 32 75 70
117 185 203 64 47 148 109 186 138 39 28 151 123 251 210 100 88 195 167 211
176 l30 18 11 -58 c6 -31 18 -93 26 -136 9 -47 17 -168 20 -300 4 -162 10
-234 21 -271 20 -62 30 -226 29 -450 -1 -200 -29 -402 -71 -504 -23 -58 -35
-99 -72 -239 -5 -18 -25 -60 -45 -94 -48 -79 -72 -153 -87 -263 -28 -216 39
-567 155 -805 31 -64 59 -103 116 -161 77 -79 119 -106 230 -149 62 -25 69
-31 163 -150 208 -264 314 -450 381 -670 19 -63 53 -167 75 -230 53 -154 187
-645 205 -756 8 -49 20 -161 26 -249 6 -88 18 -226 26 -306 l15 -146 -39 -104
c-57 -151 -99 -282 -122 -384 -49 -212 -51 -240 -60 -900 -9 -691 -12 -755
-42 -755 -27 0 -33 -25 -17 -72 15 -47 6 -69 -37 -82 -16 -4 -56 -21 -89 -36
-33 -15 -88 -38 -122 -50 -35 -12 -68 -29 -74 -36 -6 -8 -18 -14 -25 -14 -8 0
-37 -11 -66 -25 -28 -14 -57 -25 -63 -25 -7 0 -18 -25 -25 -55 -10 -44 -11
-63 -1 -95 6 -22 16 -40 21 -40 6 0 10 -13 10 -29 0 -15 10 -41 22 -56 12 -15
22 -35 23 -44 3 -33 17 -61 30 -61 8 0 17 -15 21 -37 6 -35 47 -103 66 -111 5
-2 5 -8 2 -13 -9 -15 16 -69 32 -69 7 0 16 -16 19 -37 9 -50 25 -93 46 -121
10 -13 15 -30 12 -38 -8 -21 17 -115 33 -121 9 -3 13 -21 13 -53 -1 -34 5 -59
20 -84 13 -20 20 -40 16 -45 -7 -13 32 -91 46 -91 5 0 18 -20 29 -45 11 -25
27 -48 35 -52 9 -3 23 -23 32 -44 8 -22 21 -39 28 -39 15 0 38 -26 41 -47 3
-19 44 -63 58 -63 6 0 20 -14 31 -30 11 -16 23 -30 27 -30 3 0 27 -16 53 -35
58 -44 131 -63 174 -45 30 12 69 63 83 109 4 15 -4 74 -24 160 -29 123 -32
151 -32 296 l1 160 26 -3 c23 -2 27 2 37 39 11 40 10 57 -6 121 -3 15 -3 45 1
65 l7 38 19 -25 c52 -65 74 -80 172 -118 87 -34 114 -40 185 -41 53 -1 81 3
77 9 -3 5 -26 10 -50 10 l-44 0 -14 53 c-8 28 -18 72 -21 95 -8 51 -33 103
-73 151 -29 33 -31 34 -102 33 -40 -1 -81 -4 -91 -7 -21 -7 -40 20 -40 56 0
29 -36 87 -60 94 -30 10 -34 83 -11 250 11 83 27 227 36 320 28 302 51 423
199 1039 25 104 66 311 91 460 52 315 71 400 125 553 74 210 109 400 90 488
-17 78 -12 337 11 585 27 296 35 673 19 866 -27 327 -91 640 -197 969 -35 110
-67 220 -69 245 l-5 45 158 111 c296 209 602 394 652 394 17 0 18 -16 24 -222
7 -253 39 -639 112 -1368 21 -201 22 -190 -20 -190 -32 0 -35 -2 -35 -30 0
-17 9 -49 21 -71 24 -47 18 -58 -38 -78 -21 -7 -49 -24 -63 -36 -14 -13 -71
-53 -128 -89 -57 -35 -126 -86 -154 -113 -28 -26 -63 -60 -79 -75 -16 -14 -29
-36 -29 -48 0 -35 29 -92 50 -97 13 -4 20 -14 20 -30 0 -16 13 -37 34 -57 19
-17 36 -40 38 -51 2 -11 16 -26 31 -33 19 -9 27 -21 27 -38 0 -16 16 -40 45
-70 25 -24 45 -52 45 -62 1 -22 34 -62 53 -62 8 0 17 -13 21 -32 9 -44 54
-118 71 -118 8 0 15 -3 16 -7 0 -5 2 -19 3 -33 2 -31 53 -113 65 -105 11 6 21
-18 21 -51 0 -15 15 -39 40 -63 22 -21 40 -46 40 -55 0 -25 41 -76 61 -76 9 0
24 -15 33 -34 10 -21 30 -40 53 -51 21 -10 48 -30 61 -46 14 -17 33 -29 47
-29 13 0 36 -13 52 -29 31 -30 92 -66 100 -58 5 6 33 -8 75 -36 14 -10 47 -20
73 -22 25 -3 55 -10 67 -16 30 -16 128 -16 167 0 24 11 38 26 52 58 23 55 25
135 4 153 -19 16 -158 218 -178 257 -15 32 -12 60 10 85 11 12 12 21 4 37 -6
11 -11 37 -11 58 l1 38 27 -30 c70 -76 87 -66 20 12 -65 73 -72 90 -47 103 24
14 41 53 41 100 0 30 -8 42 -52 81 -30 28 -47 50 -41 54 18 10 13 47 -15 116
-21 51 -25 74 -20 114 8 67 -10 95 -62 95 l-37 0 -18 183 c-10 100 -26 265
-37 367 -34 324 -28 418 61 907 28 153 59 339 70 413 11 74 51 290 89 480 87
437 101 534 101 695 0 177 -27 275 -100 358 -93 105 -296 142 -541 97 -58 -10
-159 -26 -225 -36 -200 -27 -548 -119 -1005 -263 -36 -11 -69 -21 -73 -21 -12
0 -1 62 43 247 22 89 46 198 54 243 9 55 21 89 35 104 12 12 21 29 21 37 0 9
50 62 110 118 118 110 135 133 160 224 l16 58 59 -88 c103 -156 234 -275 413
-378 180 -103 326 -148 406 -125 49 13 99 59 116 105 6 17 16 155 23 308 13
326 5 445 -47 732 -33 186 -49 309 -62 490 -4 62 -16 121 -40 190 -18 55 -37
125 -42 155 -5 30 -19 89 -30 130 -12 41 -24 87 -26 101 -3 14 -23 43 -44 65
-22 21 -63 74 -91 116 -60 89 -66 94 -88 76 -13 -11 -18 -9 -31 10 -18 27 -34
28 -57 2 -13 -14 -16 -28 -11 -55 4 -19 5 -35 4 -35 -2 0 -21 22 -42 50 -32
42 -41 48 -57 40 -26 -14 -33 -52 -18 -97 6 -21 13 -62 14 -93 1 -44 12 -79
58 -175 67 -143 76 -188 52 -250 -18 -48 -35 -56 -72 -30 -11 8 -42 16 -67 17
-36 1 -52 -4 -71 -22 -14 -13 -25 -29 -25 -35 0 -7 25 -28 55 -46 31 -19 79
-49 108 -67 45 -29 58 -33 100 -28 61 7 81 -13 102 -106 39 -174 45 -578 9
-665 -9 -24 -20 -43 -24 -43 -4 0 -39 39 -78 87 -54 66 -77 105 -97 162 -53
150 -163 328 -237 384 -31 23 -160 94 -320 175 -44 22 -79 49 -104 80 -21 26
-60 68 -87 94 l-49 47 16 56 c9 30 20 55 24 55 10 0 101 -30 140 -46 18 -8 50
-14 70 -14 40 0 72 26 121 98 13 18 35 39 51 47 16 8 32 25 35 37 4 13 22 39
40 58 18 19 42 49 52 66 43 73 75 115 98 130 33 21 39 48 25 100 -11 39 -11
50 6 84 10 22 25 40 32 40 8 0 34 21 59 46 31 33 43 52 40 66 -3 11 8 61 24
111 16 51 32 112 36 137 6 50 41 141 57 152 8 5 7 14 -1 28 -7 11 -13 39 -13
62 -1 129 -148 377 -251 424 -42 19 -263 125 -291 140 -36 19 -268 19 -323 -1
-58 -21 -61 -20 -92 34 -15 27 -30 48 -34 45 -4 -2 -40 12 -79 33 -59 30 -85
37 -144 39 -44 2 -84 -2 -106 -10z m508 -11682 c28 -34 66 -124 90 -216 13
-47 5 -48 -74 -13 -31 14 -74 30 -96 36 -38 10 -119 74 -138 109 -5 10 -1 32
12 62 22 51 29 54 120 57 54 1 58 -1 86 -35z"/>
</g>
</svg>
